<svg width="86" height="100" viewBox="0 0 86 100" fill="none" xmlns="http://www.w3.org/2000/svg">
<g clip-path="url(#clip0_10_40)">
<path d="M42.4071 24.1943C47.9094 24.1943 52.7364 22.0377 56.8879 17.7243C61.0394 13.4109 63.1153 8.39526 63.1153 2.67726C63.1153 2.04926 63.0658 1.15684 62.967 0C62.2421 0.0991579 61.6984 0.181789 61.336 0.247895C56.2619 0.975053 51.7974 3.47053 47.9424 7.73421C44.0875 11.998 42.16 16.5593 42.16 21.418C42.16 21.9798 42.2423 22.9054 42.4071 24.1943ZM62.1268 100C66.0476 100 70.3804 97.3063 75.125 91.9187C79.8697 86.5312 83.4939 80.2016 85.998 72.9301C76.6736 68.1044 72.0113 61.18 72.0113 52.1566C72.0113 44.6207 75.7839 38.1756 83.3292 32.8211C78.0904 26.2436 71.1712 22.9548 62.5716 22.9548C58.9472 22.9548 55.636 23.5002 52.6376 24.5909L50.7596 25.2851L48.239 26.2766C46.5915 26.9046 45.0923 27.2187 43.7415 27.2187C42.6871 27.2187 41.3032 26.8551 39.59 26.1279L37.6624 25.3346L35.8338 24.5909C33.1649 23.4672 30.2984 22.9053 27.2343 22.9053C19.0301 22.9053 12.4404 25.6817 7.46509 31.2345C2.48981 36.7873 0.00222778 44.1084 0.00222778 53.1978C0.00222778 65.9891 3.98897 77.8054 11.9626 88.6465C17.498 96.2155 22.5556 100 27.1354 100C29.0794 100 31.0069 99.6199 32.9179 98.8597L35.3396 97.8681L37.2671 97.174C39.9689 96.2155 42.4565 95.7362 44.7299 95.7362C47.1352 95.7362 49.9029 96.3478 53.033 97.5706L54.5651 98.1656C57.761 99.3885 60.2817 100 62.1268 100Z" fill="white"/>
</g>
<defs>
<clipPath id="clip0_10_40">
<rect width="86" height="100" fill="white"/>
</clipPath>
</defs>
</svg>
