<svg width="126" height="42" viewBox="0 0 126 42" fill="none" xmlns="http://www.w3.org/2000/svg">
<path fill-rule="evenodd" clip-rule="evenodd" d="M21 0C9.40202 0 0 9.40202 0 21C0 32.598 9.40202 42 21 42H105C116.598 42 126 32.598 126 21C126 9.40202 116.598 0 105 0H21ZM26.1009 13.4545V28H32.6278C33.7027 28 34.6165 27.8248 35.3693 27.4744C36.1222 27.1193 36.6974 26.6364 37.0952 26.0256C37.4929 25.41 37.6918 24.7116 37.6918 23.9304C37.6918 23.2296 37.5402 22.6236 37.2372 22.1122C36.9342 21.5961 36.5317 21.1937 36.0298 20.9048C35.5327 20.616 34.9905 20.4574 34.4034 20.429V20.2869C34.9384 20.1733 35.4096 19.9744 35.8168 19.6903C36.224 19.4062 36.5436 19.0488 36.7756 18.6179C37.0076 18.1823 37.1236 17.6875 37.1236 17.1335C37.1236 16.4044 36.9366 15.7628 36.5625 15.2088C36.1932 14.6548 35.6392 14.224 34.9006 13.9162C34.1667 13.6084 33.2552 13.4545 32.1662 13.4545H26.1009ZM31.7898 25.1662H29.6165V21.7003H31.8537C32.3035 21.7003 32.6894 21.776 33.0114 21.9276C33.3333 22.0743 33.5819 22.285 33.7571 22.5597C33.9323 22.8295 34.0199 23.1515 34.0199 23.5256C34.0199 24.0417 33.8376 24.4441 33.473 24.733C33.1132 25.0218 32.5521 25.1662 31.7898 25.1662ZM31.5625 19.4347H29.6165V16.2457H31.6193C32.2064 16.2457 32.6728 16.3854 33.0185 16.6648C33.3641 16.9441 33.5369 17.3277 33.5369 17.8153C33.5369 18.1562 33.4517 18.4474 33.2812 18.6889C33.1155 18.9304 32.8835 19.1151 32.5852 19.2429C32.2869 19.3707 31.946 19.4347 31.5625 19.4347ZM41.527 27.5312C42.3556 27.9811 43.3404 28.206 44.4815 28.206C45.4332 28.206 46.2713 28.0616 46.9957 27.7727C47.7202 27.4792 48.3049 27.0696 48.75 26.544C49.1998 26.0137 49.491 25.3911 49.6236 24.6761L46.4347 24.5838C46.3447 24.8253 46.2098 25.0289 46.0298 25.1946C45.8499 25.3603 45.6345 25.4858 45.3835 25.571C45.1326 25.6562 44.8532 25.6989 44.5455 25.6989C44.1004 25.6989 43.7169 25.6065 43.3949 25.4219C43.0729 25.2372 42.8243 24.9792 42.6491 24.6477C42.474 24.3116 42.3864 23.9209 42.3864 23.4759V23.3835H49.6591V22.517C49.6591 21.6222 49.5289 20.8291 49.2685 20.1378C49.008 19.4418 48.6435 18.857 48.1747 18.3835C47.706 17.91 47.1496 17.5526 46.5057 17.3111C45.8617 17.0696 45.1515 16.9489 44.375 16.9489C43.2765 16.9489 42.3224 17.1856 41.5128 17.6591C40.7031 18.1278 40.0758 18.786 39.6307 19.6335C39.1856 20.4763 38.9631 21.4612 38.9631 22.5881C38.9631 23.7481 39.1832 24.7495 39.6236 25.5923C40.0687 26.4304 40.7031 27.0767 41.527 27.5312ZM42.3885 21.3665C42.4057 21.0154 42.4997 20.7005 42.6705 20.4219C42.8504 20.1236 43.0942 19.8892 43.402 19.7188C43.7098 19.5436 44.0578 19.456 44.446 19.456C44.8295 19.456 45.1681 19.5388 45.4616 19.7045C45.7599 19.8655 45.9943 20.0904 46.1648 20.3793C46.3352 20.6681 46.4228 20.9972 46.4276 21.3665H42.3885ZM57.5906 19.6477V17.0909H55.6232V14.4773H52.1502V17.0909H50.7085V19.6477H52.1502V24.9531C52.1407 25.6918 52.2875 26.3049 52.5906 26.7926C52.8983 27.2803 53.341 27.6402 53.9187 27.8722C54.5011 28.0994 55.1995 28.1941 56.0139 28.1562C56.4305 28.1373 56.788 28.0923 57.0863 28.0213C57.3893 27.9503 57.6237 27.8911 57.7894 27.8438L57.2639 25.3366C57.1881 25.3556 57.0745 25.3793 56.9229 25.4077C56.7762 25.4313 56.6365 25.4432 56.5039 25.4432C56.3192 25.4432 56.1606 25.4171 56.0281 25.3651C55.8955 25.3082 55.7937 25.2159 55.7227 25.0881C55.6564 24.9555 55.6232 24.7827 55.6232 24.5696V19.6477H57.5906ZM60.5842 27.8366C61.1239 28.0687 61.7418 28.1847 62.4379 28.1847C62.9445 28.1847 63.399 28.1207 63.8015 27.9929C64.2087 27.8651 64.5614 27.6733 64.8597 27.4176C65.1628 27.1619 65.4113 26.8494 65.6055 26.4801H65.6907V28H68.9577V20.5852C68.9577 20.0076 68.837 19.4938 68.5955 19.044C68.3588 18.5942 68.0226 18.2154 67.587 17.9077C67.1514 17.5952 66.64 17.3584 66.0529 17.1974C65.4658 17.0317 64.8242 16.9489 64.1282 16.9489C63.1528 16.9489 62.3171 17.1004 61.6211 17.4034C60.9298 17.7017 60.3853 18.1136 59.9876 18.6392C59.5946 19.16 59.3507 19.7519 59.256 20.4148L62.4592 20.5284C62.5349 20.178 62.7125 19.9034 62.9918 19.7045C63.2712 19.5057 63.6405 19.4062 64.0998 19.4062C64.5259 19.4062 64.8645 19.5057 65.1154 19.7045C65.3664 19.9034 65.4918 20.1851 65.4918 20.5497V20.5852C65.4918 20.8078 65.4042 20.9806 65.229 21.1037C65.0586 21.2221 64.784 21.3144 64.4052 21.3807C64.0264 21.4422 63.5269 21.5014 62.9066 21.5582C62.3526 21.6056 61.8318 21.6979 61.3441 21.8352C60.8564 21.9678 60.4255 22.1643 60.0515 22.4247C59.6774 22.6851 59.3839 23.0237 59.1708 23.4403C58.9577 23.857 58.8512 24.3684 58.8512 24.9744C58.8512 25.6941 59.0051 26.2931 59.3129 26.7713C59.6254 27.2448 60.0491 27.5999 60.5842 27.8366ZM64.5188 25.6847C64.2205 25.8362 63.8843 25.9119 63.5103 25.9119C63.1126 25.9119 62.7835 25.8172 62.5231 25.6278C62.2674 25.4384 62.1396 25.1638 62.1396 24.804C62.1396 24.5672 62.1987 24.3636 62.3171 24.1932C62.4402 24.018 62.6154 23.8759 62.8427 23.767C63.0747 23.6581 63.354 23.5777 63.6808 23.5256C63.8417 23.5019 64.0098 23.4759 64.185 23.4474C64.3602 23.419 64.5307 23.3859 64.6964 23.348C64.8621 23.3101 65.0136 23.2699 65.1509 23.2273C65.293 23.1847 65.4137 23.1373 65.5131 23.0852V24.1222C65.5131 24.4773 65.4232 24.7898 65.2433 25.0597C65.0633 25.3248 64.8219 25.5331 64.5188 25.6847ZM82.0756 28V13.4545H78.8157L75.229 15.6847V18.7244L78.4819 16.7358H78.5671V28H82.0756ZM85.2166 27.6662C85.5812 28.026 86.0192 28.206 86.5305 28.206C86.8572 28.206 87.1579 28.1231 87.4325 27.9574C87.7119 27.7917 87.9368 27.5691 88.1072 27.2898C88.2824 27.0104 88.3724 26.7003 88.3771 26.3594C88.3724 25.8575 88.183 25.429 87.809 25.0739C87.4396 24.714 87.0135 24.5341 86.5305 24.5341C86.0192 24.5341 85.5812 24.714 85.2166 25.0739C84.8568 25.429 84.6792 25.8575 84.684 26.3594C84.6792 26.8707 84.8568 27.3063 85.2166 27.6662ZM92.7521 27.4531C93.6707 28.0545 94.7644 28.3551 96.0334 28.3551C97.3071 28.3551 98.4008 28.0568 99.3146 27.4602C100.233 26.8589 100.941 25.9901 101.438 24.8537C101.935 23.7173 102.184 22.349 102.184 20.7486C102.189 19.1577 101.942 17.8035 101.445 16.6861C100.948 15.5687 100.238 14.7188 99.3146 14.1364C98.3961 13.5492 97.3023 13.2557 96.0334 13.2557C94.7644 13.2557 93.6707 13.5492 92.7521 14.1364C91.8383 14.7188 91.1328 15.5687 90.6357 16.6861C90.1432 17.7988 89.8947 19.1529 89.8899 20.7486C89.8852 22.3442 90.1314 23.7102 90.6285 24.8466C91.1257 25.9782 91.8336 26.8471 92.7521 27.4531ZM97.8729 24.321C97.4041 25.0928 96.791 25.4787 96.0334 25.4787C95.5315 25.4787 95.0888 25.3082 94.7053 24.9673C94.3217 24.6217 94.0234 24.0985 93.8104 23.3977C93.602 22.697 93.5002 21.8139 93.505 20.7486C93.5097 19.1766 93.7441 18.0118 94.2081 17.2543C94.6721 16.492 95.2805 16.1108 96.0334 16.1108C96.54 16.1108 96.9827 16.2789 97.3615 16.6151C97.7403 16.9512 98.0362 17.4626 98.2493 18.1491C98.4624 18.831 98.5689 19.6974 98.5689 20.7486C98.5736 22.3537 98.3416 23.5445 97.8729 24.321Z" fill="#E1C8FB"/>
</svg>
