<svg width="175" height="60" viewBox="0 0 175 60" fill="none" xmlns="http://www.w3.org/2000/svg">
<path fill-rule="evenodd" clip-rule="evenodd" d="M30 0C13.4315 0 0 13.4315 0 30C0 46.5685 13.4315 60 30 60H145C161.569 60 175 46.5685 175 30C175 13.4315 161.569 0 145 0H30ZM62.625 21.4545V24.3096H67.0426V36H70.5085V24.3096H74.919V21.4545H62.625ZM75.5032 25.0909V36H78.9762V30.0767C78.9762 29.6411 79.0685 29.2623 79.2532 28.9404C79.4426 28.6136 79.7006 28.3604 80.0273 28.1804C80.3588 27.9957 80.7305 27.9034 81.1424 27.9034C81.3507 27.9034 81.5875 27.92 81.8526 27.9531C82.1225 27.9863 82.3403 28.0312 82.506 28.0881V25.0696C82.3593 25.027 82.2006 24.9962 82.0302 24.9773C81.8597 24.9536 81.694 24.9418 81.533 24.9418C80.9365 24.9418 80.4132 25.1193 79.9634 25.4744C79.5136 25.8248 79.1893 26.3599 78.9904 27.0795H78.8768V25.0909H75.5032ZM85.1978 39.9915C85.5671 40.0577 85.9601 40.0909 86.3768 40.0909C87.2101 40.0909 87.9109 39.9607 88.4791 39.7003C89.0519 39.4399 89.5184 39.08 89.8782 38.6207C90.2428 38.1662 90.5245 37.6406 90.7234 37.044L94.8356 25.0909H91.1779L89.1396 32.875H89.0259L87.016 25.0909H83.3796L87.2574 36.3977L87.1225 36.7244C87.0136 36.9943 86.8574 37.1813 86.6537 37.2855C86.4549 37.3944 86.2158 37.4394 85.9365 37.4205C85.6618 37.4015 85.3541 37.3352 85.0131 37.2216L84.2461 39.7429C84.5112 39.847 84.8285 39.9299 85.1978 39.9915ZM100.464 25.0909V36H103.937V25.0909H100.464ZM100.947 23.3367C101.297 23.6586 101.716 23.8196 102.204 23.8196C102.697 23.8196 103.116 23.6586 103.461 23.3367C103.812 23.0099 103.987 22.6169 103.987 22.1577C103.987 21.7031 103.812 21.3149 103.461 20.9929C103.116 20.6662 102.697 20.5029 102.204 20.5029C101.716 20.5029 101.297 20.6662 100.947 20.9929C100.597 21.3149 100.422 21.7031 100.422 22.1577C100.422 22.6169 100.597 23.0099 100.947 23.3367ZM112.305 27.6477V25.0909H110.338V22.4773H106.865V25.0909H105.423V27.6477H106.865V32.9531C106.856 33.6918 107.002 34.3049 107.305 34.7926C107.613 35.2803 108.056 35.6401 108.634 35.8721C109.216 36.0994 109.914 36.1942 110.729 36.1562C111.145 36.1373 111.503 36.0923 111.801 36.0213C112.104 35.9503 112.339 35.8911 112.504 35.8438L111.979 33.3367C111.903 33.3556 111.789 33.3793 111.638 33.4077C111.541 33.4233 111.447 33.4337 111.357 33.4391C111.31 33.4418 111.264 33.4432 111.219 33.4432C111.034 33.4432 110.875 33.4171 110.743 33.3651C110.61 33.3082 110.509 33.2159 110.438 33.0881C110.371 32.9555 110.338 32.7827 110.338 32.5696V27.6477H112.305Z" fill="#13C4FC"/>
</svg>
