<svg width="107" height="20" viewBox="0 0 107 20" fill="none" xmlns="http://www.w3.org/2000/svg">
<path d="M10.4435 6.04723C10.3725 5.33108 10.0677 4.77474 9.52912 4.3782C8.99053 3.98165 8.25959 3.78338 7.33629 3.78338C6.70893 3.78338 6.17921 3.87216 5.74716 4.04972C5.3151 4.22135 4.98366 4.46106 4.75284 4.76882C4.52794 5.07659 4.41548 5.42578 4.41548 5.81641C4.40365 6.14193 4.47171 6.42602 4.61967 6.66868C4.77356 6.91134 4.98366 7.12145 5.25 7.29901C5.51634 7.47064 5.8241 7.62157 6.1733 7.75178C6.52249 7.87607 6.89536 7.9826 7.2919 8.07138L8.92543 8.462C9.71851 8.63956 10.4465 8.8763 11.1094 9.17223C11.7723 9.46816 12.3464 9.83215 12.8317 10.2642C13.317 10.6963 13.6928 11.2053 13.9592 11.7912C14.2314 12.3771 14.3705 13.0489 14.3764 13.8065C14.3705 14.9192 14.0864 15.8839 13.5241 16.7006C12.9678 17.5115 12.1629 18.1418 11.1094 18.5916C10.0618 19.0355 8.79818 19.2575 7.31854 19.2575C5.85073 19.2575 4.57232 19.0326 3.48331 18.5827C2.40021 18.1329 1.55386 17.4671 0.944247 16.5852C0.340554 15.6974 0.023911 14.5996 -0.00568184 13.2915H3.71413C3.75556 13.9012 3.93016 14.4102 4.23793 14.8185C4.55161 15.221 4.96887 15.5258 5.4897 15.733C6.01645 15.9342 6.61127 16.0348 7.27415 16.0348C7.92519 16.0348 8.49041 15.9401 8.96982 15.7507C9.45514 15.5613 9.83097 15.2979 10.0973 14.9606C10.3636 14.6232 10.4968 14.2356 10.4968 13.7976C10.4968 13.3892 10.3755 13.0459 10.1328 12.7678C9.89607 12.4896 9.54688 12.2528 9.08523 12.0575C8.6295 11.8622 8.07019 11.6847 7.40732 11.5249L5.42756 11.0277C3.89465 10.6548 2.6843 10.0719 1.79652 9.27876C0.908736 8.48568 0.467803 7.41738 0.473722 6.07386C0.467803 4.97301 0.760772 4.01124 1.35263 3.18857C1.9504 2.36589 2.77012 1.72372 3.81179 1.26207C4.85346 0.800426 6.03717 0.569602 7.36293 0.569602C8.71236 0.569602 9.89015 0.800426 10.8963 1.26207C11.9084 1.72372 12.6955 2.36589 13.2578 3.18857C13.8201 4.01124 14.1101 4.96413 14.1278 6.04723H10.4435ZM33.6702 9.90909C33.6702 11.8918 33.2944 13.5786 32.5427 14.9695C31.797 16.3603 30.779 17.4227 29.4887 18.1566C28.2044 18.8846 26.7603 19.2486 25.1563 19.2486C23.5406 19.2486 22.0905 18.8816 20.8062 18.1477C19.5219 17.4138 18.5068 16.3514 17.7611 14.9606C17.0154 13.5697 16.6425 11.8859 16.6425 9.90909C16.6425 7.92637 17.0154 6.23958 17.7611 4.84872C18.5068 3.45786 19.5219 2.39844 20.8062 1.67045C22.0905 0.936553 23.5406 0.569602 25.1563 0.569602C26.7603 0.569602 28.2044 0.936553 29.4887 1.67045C30.779 2.39844 31.797 3.45786 32.5427 4.84872C33.2944 6.23958 33.6702 7.92637 33.6702 9.90909ZM29.7728 9.90909C29.7728 8.62476 29.5805 7.54167 29.1958 6.6598C28.817 5.77794 28.2813 5.10914 27.5889 4.65341C26.8964 4.19768 26.0856 3.96982 25.1563 3.96982C24.2271 3.96982 23.4163 4.19768 22.7238 4.65341C22.0313 5.10914 21.4927 5.77794 21.108 6.6598C20.7293 7.54167 20.5399 8.62476 20.5399 9.90909C20.5399 11.1934 20.7293 12.2765 21.108 13.1584C21.4927 14.0402 22.0313 14.709 22.7238 15.1648C23.4163 15.6205 24.2271 15.8484 25.1563 15.8484C26.0856 15.8484 26.8964 15.6205 27.5889 15.1648C28.2813 14.709 28.817 14.0402 29.1958 13.1584C29.5805 12.2765 29.7728 11.1934 29.7728 9.90909ZM47.7482 0.818181H51.5923V12.6257C51.5923 13.9515 51.2757 15.1115 50.6424 16.1058C50.015 17.1001 49.1361 17.8755 48.0057 18.4318C46.8752 18.9822 45.5584 19.2575 44.055 19.2575C42.5458 19.2575 41.226 18.9822 40.0955 18.4318C38.9651 17.8755 38.0862 17.1001 37.4588 16.1058C36.8314 15.1115 36.5178 13.9515 36.5178 12.6257V0.818181H40.3619V12.2972C40.3619 12.9897 40.5128 13.6052 40.8146 14.1438C41.1224 14.6824 41.5545 15.1056 42.1108 15.4134C42.6671 15.7211 43.3152 15.875 44.055 15.875C44.8008 15.875 45.4489 15.7211 45.9993 15.4134C46.5556 15.1056 46.9847 14.6824 47.2866 14.1438C47.5943 13.6052 47.7482 12.9897 47.7482 12.2972V0.818181ZM69.9628 0.818181V19H66.6425L58.7323 7.55646H58.5992V19H54.7551V0.818181H58.1286L65.9767 12.2528H66.1365V0.818181H69.9628ZM79.5842 19H73.1388V0.818181H79.6374C81.4663 0.818181 83.0406 1.18217 84.3604 1.91016C85.6803 2.63222 86.6953 3.67093 87.4055 5.02628C88.1217 6.38163 88.4798 8.00331 88.4798 9.89134C88.4798 11.7853 88.1217 13.4129 87.4055 14.7741C86.6953 16.1354 85.6744 17.18 84.3427 17.908C83.0169 18.636 81.4308 19 79.5842 19ZM76.983 15.7063H79.4244C80.5607 15.7063 81.5166 15.5051 82.2919 15.1026C83.0732 14.6942 83.6591 14.0639 84.0497 13.2116C84.4463 12.3535 84.6445 11.2467 84.6445 9.89134C84.6445 8.54782 84.4463 7.44993 84.0497 6.59766C83.6591 5.74538 83.0761 5.11802 82.3008 4.71555C81.5254 4.31309 80.5696 4.11186 79.4332 4.11186H76.983V15.7063ZM89.1634 0.818181H93.4691L97.6151 8.64844H97.7926L101.939 0.818181H106.244L99.6126 12.5724V19H95.7951V12.5724L89.1634 0.818181Z" fill="url(#paint0_linear_2_4)"/>
<defs>
<linearGradient id="paint0_linear_2_4" x1="-1" y1="10" x2="107" y2="10" gradientUnits="userSpaceOnUse">
<stop stop-color="#8DCAE5"/>
<stop offset="1" stop-color="#D5B6D7"/>
</linearGradient>
</defs>
</svg>
