<svg width="88" height="113" viewBox="0 0 88 113" fill="none" xmlns="http://www.w3.org/2000/svg">
<g clip-path="url(#clip0_10_46)">
<path d="M78.012 16.3541L76.956 15.0299L75.746 13.7498C67.364 4.87754 56.078 0 43.934 0C31.79 0 20.504 4.87754 12.122 13.7498L10.956 14.9857L9.85601 16.3541C3.56401 24.1449 0.0880127 33.9662 0.0880127 43.9861C0.0880127 54.0061 3.56401 63.8273 9.83401 71.6182L9.92201 71.7506V113.022L23.54 82.8961L23.958 83.1168C29.392 85.9197 35.222 87.5309 41.294 87.884C41.602 87.9061 41.932 87.9281 42.24 87.9281C43.472 87.9723 44.352 87.9723 45.606 87.9281C45.914 87.9061 46.244 87.9061 46.552 87.884C52.624 87.5309 58.454 85.9197 63.888 83.1168L64.306 82.8961L77.902 113V71.7285L77.99 71.6182C84.282 63.8273 87.758 54.0061 87.758 43.9861C87.758 33.9662 84.304 24.1449 78.012 16.3541ZM9.94401 21.3641V66.5861L9.13001 65.2619C5.21401 58.8615 3.16801 51.49 3.16801 43.9641C3.16801 36.4381 5.23601 29.0887 9.13001 22.6662L9.94401 21.3641ZM74.844 24.6967V68.418H55.088L74.844 24.6967ZM73.348 72.2361C71.192 74.5094 68.75 76.5178 66.132 78.2393C65.032 78.9676 63.866 79.6518 62.656 80.2697C58.212 82.5871 53.438 84.0437 48.488 84.6176L47.718 84.7059L53.68 71.5078H74.052L73.348 72.2361ZM74.844 75.1494V98.7205L66.99 81.3512L67.32 81.1525C69.762 79.6076 72.05 77.8199 74.096 75.8557L74.844 75.1494ZM13.772 75.8557C15.818 77.8199 18.106 79.5855 20.548 81.1525L20.878 81.3512L13.024 98.7205V75.1494L13.772 75.8557ZM40.128 84.7059L39.358 84.6176C34.408 84.0658 29.634 82.6092 25.19 80.2697C23.98 79.6297 22.814 78.9455 21.714 78.2393C19.096 76.5178 16.676 74.5094 14.498 72.2361L13.794 71.4857H34.166L40.128 84.7059ZM50.314 71.5078L44.286 84.8604H43.582L37.532 71.5078H50.314ZM32.78 68.418H13.024V24.6967L32.78 68.418ZM13.068 17.3031L13.244 17.0824C21.01 8.18809 32.186 3.08984 43.934 3.08984C55.682 3.08984 66.858 8.18809 74.624 17.0824L74.8 17.3031L51.722 68.418H36.146L13.068 17.3031ZM84.7 43.9861C84.7 51.5121 82.632 58.8615 78.716 65.284L77.902 66.6082V21.3641L78.716 22.6883C82.632 29.0887 84.7 36.4602 84.7 43.9861Z" fill="#FFFEFE"/>
</g>
<defs>
<clipPath id="clip0_10_46">
<rect width="88" height="113" fill="white"/>
</clipPath>
</defs>
</svg>
