<svg width="175" height="60" viewBox="0 0 175 60" fill="none" xmlns="http://www.w3.org/2000/svg">
<path fill-rule="evenodd" clip-rule="evenodd" d="M30 0C13.4315 0 0 13.4315 0 30C0 46.5685 13.4315 60 30 60H145C161.569 60 175 46.5685 175 30C175 13.4315 161.569 0 145 0H30ZM60.331 25.6009C60.705 25.8897 60.9157 26.2945 60.9631 26.8153H64.3295C64.3201 25.911 64.0857 25.1155 63.6264 24.429C63.1671 23.7424 62.5208 23.2098 61.6875 22.831C60.8589 22.4474 59.8812 22.2557 58.7543 22.2557C57.651 22.2557 56.6686 22.4451 55.8068 22.8239C54.9451 23.2027 54.2704 23.7306 53.7827 24.4077C53.295 25.0848 53.0535 25.8731 53.0582 26.7727C53.0535 27.8759 53.4134 28.7519 54.1378 29.4006C54.8622 30.0445 55.8542 30.5109 57.1136 30.7997L58.6335 31.1548C59.1638 31.2779 59.5994 31.4129 59.9403 31.5597C60.286 31.7017 60.5417 31.8722 60.7074 32.071C60.8731 32.2652 60.9583 32.4995 60.9631 32.7741C60.9583 33.0677 60.866 33.3281 60.6861 33.5554C60.5062 33.7827 60.2481 33.9602 59.9119 34.0881C59.5805 34.2159 59.178 34.2798 58.7045 34.2798C58.1884 34.2798 57.7339 34.1993 57.3409 34.0384C56.9527 33.8774 56.6473 33.6406 56.4247 33.3281C56.2022 33.0156 56.0767 32.625 56.0483 32.1562H52.6818C52.696 33.2926 52.9541 34.2325 53.456 34.9759C53.9579 35.7192 54.661 36.2732 55.5653 36.6378C56.4697 37.0024 57.5303 37.1847 58.7472 37.1847C59.9593 37.1847 60.9938 37.0095 61.8509 36.6591C62.7126 36.3087 63.3731 35.8045 63.8324 35.1463C64.2917 34.4882 64.5237 33.6998 64.5284 32.7812C64.5237 32.1989 64.4242 31.6733 64.2301 31.2045C64.036 30.7358 63.7495 30.3215 63.3707 29.9616C62.9967 29.6018 62.5327 29.2917 61.9787 29.0312C61.4295 28.7708 60.795 28.5625 60.0753 28.4062L58.8253 28.1222C58.4938 28.0511 58.1955 27.9683 57.9304 27.8736C57.6652 27.7789 57.438 27.67 57.2486 27.5469C57.0639 27.419 56.9219 27.2723 56.8224 27.1065C56.7277 26.9408 56.6851 26.7491 56.6946 26.5312C56.6993 26.2661 56.7775 26.0317 56.929 25.8281C57.0805 25.6198 57.3078 25.4564 57.6108 25.3381C57.9138 25.2197 58.2926 25.1605 58.7472 25.1605C59.4337 25.1605 59.9616 25.3073 60.331 25.6009ZM68.4489 36.5312C69.2775 36.9811 70.2623 37.206 71.4034 37.206C72.3551 37.206 73.1932 37.0616 73.9176 36.7727C74.642 36.4792 75.2268 36.0696 75.6719 35.544C76.1217 35.0137 76.4129 34.3911 76.5455 33.6761L73.3565 33.5838C73.2666 33.8253 73.1316 34.0289 72.9517 34.1946C72.7718 34.3603 72.5563 34.4858 72.3054 34.571C72.0545 34.6562 71.7751 34.6989 71.4673 34.6989C71.0223 34.6989 70.6387 34.6065 70.3168 34.4219C69.9948 34.2372 69.7462 33.9792 69.571 33.6477C69.3958 33.3116 69.3082 32.9209 69.3082 32.4759V32.3835H76.581V31.517C76.581 30.6222 76.4508 29.8291 76.1903 29.1378C75.9299 28.4418 75.5653 27.857 75.0966 27.3835C74.6278 26.91 74.0715 26.5526 73.4276 26.3111C72.7836 26.0696 72.0734 25.9489 71.2969 25.9489C70.1984 25.9489 69.2443 26.1856 68.4347 26.6591C67.625 27.1278 66.9976 27.786 66.5526 28.6335C66.1075 29.4763 65.8849 30.4612 65.8849 31.5881C65.8849 32.7481 66.1051 33.7495 66.5455 34.5923C66.9905 35.4304 67.625 36.0767 68.4489 36.5312ZM69.3103 30.3665C69.3276 30.0154 69.4216 29.7005 69.5923 29.4219C69.7723 29.1236 70.0161 28.8892 70.3239 28.7188C70.6316 28.5436 70.9796 28.456 71.3679 28.456C71.7514 28.456 72.09 28.5388 72.3835 28.7045C72.6818 28.8655 72.9162 29.0904 73.0866 29.3793C73.2571 29.6681 73.3447 29.9972 73.3494 30.3665H69.3103ZM79.5763 36.8366C80.1161 37.0687 80.734 37.1847 81.43 37.1847C81.9367 37.1847 82.3912 37.1207 82.7937 36.9929C83.2009 36.8651 83.5536 36.6733 83.8519 36.4176C84.1549 36.1619 84.4035 35.8494 84.5977 35.4801H84.6829V37H87.9499V29.5852C87.9499 29.0076 87.8292 28.4938 87.5877 28.044C87.351 27.5942 87.0148 27.2154 86.5792 26.9077C86.1436 26.5952 85.6322 26.3584 85.0451 26.1974C84.458 26.0317 83.8164 25.9489 83.1204 25.9489C82.145 25.9489 81.3093 26.1004 80.6133 26.4034C79.922 26.7017 79.3775 27.1136 78.9798 27.6392C78.5868 28.16 78.3429 28.7519 78.2482 29.4148L81.4513 29.5284C81.5271 29.178 81.7047 28.9034 81.984 28.7045C82.2634 28.5057 82.6327 28.4062 83.092 28.4062C83.5181 28.4062 83.8567 28.5057 84.1076 28.7045C84.3585 28.9034 84.484 29.1851 84.484 29.5497V29.5852C84.484 29.8078 84.3964 29.9806 84.2212 30.1037C84.0508 30.2221 83.7762 30.3144 83.3974 30.3807C83.0186 30.4422 82.5191 30.5014 81.8988 30.5582C81.3448 30.6056 80.824 30.6979 80.3363 30.8352C79.8486 30.9678 79.4177 31.1643 79.0437 31.4247C78.6696 31.6851 78.3761 32.0237 78.163 32.4403C77.9499 32.857 77.8434 33.3684 77.8434 33.9744C77.8434 34.6941 77.9973 35.2931 78.305 35.7713C78.6175 36.2448 79.0413 36.5999 79.5763 36.8366ZM83.511 34.6847C83.2127 34.8362 82.8765 34.9119 82.5025 34.9119C82.1048 34.9119 81.7757 34.8172 81.5153 34.6278C81.2596 34.4384 81.1317 34.1638 81.1317 33.804C81.1317 33.5672 81.1909 33.3636 81.3093 33.1932C81.4324 33.018 81.6076 32.8759 81.8349 32.767C82.0669 32.6581 82.3462 32.5777 82.6729 32.5256C82.8339 32.5019 83.002 32.4759 83.1772 32.4474C83.3524 32.419 83.5228 32.3859 83.6886 32.348C83.8543 32.3101 84.0058 32.2699 84.1431 32.2273C84.2852 32.1847 84.4059 32.1373 84.5053 32.0852V33.1222C84.5053 33.4773 84.4154 33.7898 84.2354 34.0597C84.0555 34.3248 83.814 34.5331 83.511 34.6847ZM90.0735 26.0909V37H93.5465V31.0767C93.5465 30.6411 93.6388 30.2623 93.8235 29.9403C94.0129 29.6136 94.271 29.3603 94.5977 29.1804C94.9291 28.9957 95.3008 28.9034 95.7127 28.9034C95.921 28.9034 96.1578 28.92 96.4229 28.9531C96.6928 28.9863 96.9106 29.0312 97.0763 29.0881V26.0696C96.9296 26.027 96.771 25.9962 96.6005 25.9773C96.43 25.9536 96.2643 25.9418 96.1033 25.9418C95.5067 25.9418 94.9835 26.1193 94.5337 26.4744C94.0839 26.8248 93.7596 27.3598 93.5607 28.0795H93.4471V26.0909H90.0735ZM100.056 36.4957C100.88 36.9692 101.867 37.206 103.017 37.206C104.04 37.206 104.923 37.0213 105.667 36.652C106.415 36.2779 106.995 35.7547 107.407 35.0824C107.823 34.41 108.048 33.6241 108.081 32.7244H104.836C104.793 33.108 104.691 33.4347 104.53 33.7045C104.369 33.9697 104.163 34.1709 103.912 34.3082C103.666 34.4455 103.382 34.5142 103.06 34.5142C102.658 34.5142 102.305 34.4029 102.002 34.1804C101.699 33.9531 101.462 33.6193 101.292 33.179C101.126 32.7339 101.043 32.1894 101.043 31.5455C101.043 30.9015 101.126 30.3617 101.292 29.9261C101.462 29.4858 101.699 29.1544 102.002 28.9318C102.305 28.7045 102.658 28.5909 103.06 28.5909C103.557 28.5909 103.96 28.7495 104.267 29.0668C104.58 29.384 104.769 29.822 104.836 30.3807H108.081C108.058 29.4858 107.833 28.7069 107.407 28.044C106.985 27.3764 106.398 26.8603 105.645 26.4957C104.897 26.1312 104.019 25.9489 103.01 25.9489C101.869 25.9489 100.887 26.1856 100.063 26.6591C99.2437 27.1326 98.6116 27.7931 98.1665 28.6406C97.7262 29.4834 97.506 30.4635 97.506 31.581C97.506 32.6937 97.7262 33.6738 98.1665 34.5213C98.6069 35.3641 99.2366 36.0223 100.056 36.4957ZM113.332 37V30.7784C113.336 30.3617 113.415 30.0066 113.566 29.7131C113.722 29.4195 113.938 29.1946 114.212 29.0384C114.492 28.8774 114.814 28.7969 115.178 28.7969C115.737 28.7969 116.17 28.9673 116.478 29.3082C116.786 29.6491 116.937 30.1226 116.933 30.7287V37H120.406V30.0469C120.41 29.223 120.254 28.5033 119.937 27.8878C119.624 27.2723 119.184 26.7964 118.616 26.4602C118.048 26.1193 117.38 25.9489 116.613 25.9489C115.799 25.9489 115.11 26.1383 114.546 26.517C113.987 26.8958 113.585 27.4214 113.339 28.0938H113.218V22.4545H109.859V37H113.332Z" fill="#E4CDFB"/>
</svg>
