<svg width="95" height="95" viewBox="0 0 95 95" fill="none" xmlns="http://www.w3.org/2000/svg">
<g clip-path="url(#clip0_10_24)">
<path fill-rule="evenodd" clip-rule="evenodd" d="M75.5962 42.1087C60.2854 33.0165 35.0312 32.1813 20.4131 36.6185C18.0658 37.331 15.584 36.005 14.8754 33.6577C14.1629 31.3104 15.485 28.8285 17.8363 28.116C34.6156 23.0217 62.506 24.0073 80.1325 34.4692C82.2423 35.724 82.935 38.4473 81.6842 40.5571C80.4333 42.6669 77.706 43.3635 75.5962 42.1087ZM75.0975 55.579C74.0208 57.3206 71.7448 57.8669 70.0031 56.7981C57.2375 48.9527 37.7744 46.6767 22.6694 51.2604C20.714 51.8542 18.6437 50.7498 18.05 48.7944C17.4602 46.835 18.5646 44.7727 20.52 44.175C37.7704 38.9421 59.2167 41.4754 73.8783 50.4885C75.62 51.5573 76.1663 53.8413 75.0975 55.579ZM69.2827 68.5108C68.4317 69.9121 66.6069 70.3515 65.2135 69.4965C54.059 62.6802 40.0187 61.1404 23.4848 64.9167C21.8935 65.2808 20.3062 64.2833 19.9421 62.6921C19.5779 61.0969 20.5715 59.5096 22.1667 59.1454C40.2602 55.009 55.7808 56.7902 68.301 64.4417C69.6983 65.2927 70.1377 67.1175 69.2827 68.5108ZM47.5 0C21.2681 0 0 21.2681 0 47.5C0 73.7358 21.2681 95 47.5 95C73.7358 95 95 73.7358 95 47.5C95 21.2681 73.7358 0 47.5 0Z" fill="white"/>
</g>
<defs>
<clipPath id="clip0_10_24">
<rect width="95" height="95" fill="white"/>
</clipPath>
</defs>
</svg>
