<svg width="42" height="42" viewBox="0 0 42 42" fill="none" xmlns="http://www.w3.org/2000/svg">
<g clip-path="url(#clip0_15_67)">
<path d="M28.7437 4.59375C23.7202 4.59375 19.635 8.67891 19.635 13.7025C19.635 14.0044 19.7105 14.2997 19.74 14.595C13.5286 14.0011 8.03578 11.0086 4.305 6.43125C4.13109 6.21141 3.86203 6.09328 3.57984 6.11297C3.30094 6.13266 3.05156 6.29344 2.91375 6.53625C2.12953 7.88484 1.68 9.43688 1.68 11.1038C1.68 13.1217 2.40187 14.9691 3.5175 16.485C3.30094 16.3898 3.06469 16.3373 2.86125 16.2225C2.60203 16.0847 2.29031 16.0913 2.03765 16.2422C1.785 16.3931 1.63078 16.6655 1.6275 16.9575V17.0625C1.6275 20.1567 3.22875 22.8441 5.59125 24.4913C5.565 24.488 5.53875 24.4978 5.5125 24.4913C5.22375 24.442 4.93172 24.5438 4.73812 24.7636C4.54453 24.9834 4.48219 25.2886 4.5675 25.5675C5.50594 28.4845 7.90125 30.7125 10.8675 31.5263C8.505 32.9306 5.76515 33.7575 2.80875 33.7575C2.1689 33.7575 1.55531 33.7247 0.944998 33.6525C0.551248 33.6 0.173904 33.8297 0.0426547 34.2038C-0.0918766 34.5778 0.0557797 34.9945 0.393748 35.2013C4.18359 37.6327 8.68219 39.06 13.5187 39.06C21.3577 39.06 27.5067 35.7853 31.6312 31.1063C35.7558 26.4272 37.905 20.3503 37.905 14.6737C37.905 14.4342 37.8853 14.2013 37.8787 13.965C39.4177 12.787 40.7925 11.4056 41.8687 9.79125C42.082 9.47953 42.0591 9.06281 41.813 8.77406C41.5702 8.48531 41.16 8.39672 40.8187 8.5575C40.3856 8.75109 39.8803 8.77078 39.4275 8.925C40.0247 8.12766 40.5366 7.26797 40.845 6.3C40.95 5.96859 40.8352 5.60438 40.5628 5.38781C40.2905 5.17453 39.9098 5.14828 39.6112 5.32875C38.1773 6.17859 36.5892 6.77578 34.9125 7.14C33.285 5.6175 31.1423 4.59375 28.7437 4.59375ZM28.7437 6.27375C30.8864 6.27375 32.8223 7.18922 34.1775 8.63625C34.3809 8.84625 34.6795 8.93484 34.965 8.8725C36.0609 8.65594 37.1011 8.33766 38.115 7.9275C37.5309 8.715 36.8091 9.38766 35.9625 9.89625C35.5786 10.0833 35.3981 10.5262 35.5392 10.9298C35.677 11.3302 36.097 11.5631 36.5137 11.4713C37.3537 11.3695 38.1019 11.0283 38.9025 10.815C38.1839 11.5927 37.3964 12.2948 36.54 12.915C36.307 13.0856 36.1791 13.3612 36.1987 13.65C36.2119 13.9913 36.225 14.3292 36.225 14.6737C36.225 19.9238 34.2103 25.6233 30.3712 29.9775C26.5322 34.3317 20.895 37.38 13.5187 37.38C10.1686 37.38 7.00547 36.6384 4.1475 35.3325C7.69125 35.0602 10.9594 33.8067 13.5975 31.7363C13.8731 31.5164 13.9814 31.1489 13.8698 30.8142C13.7583 30.4795 13.4498 30.2498 13.0987 30.24C10.3294 30.1908 8.00953 28.5797 6.7725 26.3025C6.81844 26.3025 6.85781 26.3025 6.90375 26.3025C7.7339 26.3025 8.55422 26.1975 9.31875 25.9875C9.68625 25.8792 9.9389 25.538 9.92578 25.1541C9.91265 24.7702 9.64031 24.442 9.26625 24.36C6.27703 23.7563 4.03594 21.3216 3.5175 18.2963C4.36406 18.5883 5.23031 18.818 6.16875 18.8475C6.55265 18.8705 6.90047 18.6309 7.01859 18.2667C7.13672 17.9025 6.99234 17.5022 6.6675 17.2988C4.6725 15.9633 3.36 13.6894 3.36 11.1038C3.36 10.1456 3.60937 9.26625 3.9375 8.42625C8.1375 13.0364 14.0175 16.0978 20.6587 16.4325C20.9212 16.4456 21.1772 16.3373 21.3478 16.1372C21.5184 15.9338 21.5841 15.6647 21.525 15.4088C21.397 14.8641 21.315 14.2866 21.315 13.7025C21.315 9.58781 24.6291 6.27375 28.7437 6.27375Z" fill="white"/>
</g>
<defs>
<clipPath id="clip0_15_67">
<rect width="42" height="42" fill="white"/>
</clipPath>
</defs>
</svg>
