<svg width="251" height="251" viewBox="0 0 251 251" fill="none" xmlns="http://www.w3.org/2000/svg">
<path d="M93.4706 102.171C97.4357 89.5054 107.098 79.8427 123.498 79.8427C138.627 79.8427 149.561 89.7749 153.526 102.402C149.291 90.5063 137.396 81.806 123.498 81.806C109.601 81.8445 97.6667 90.5063 93.4706 102.171ZM153.487 121.535C149.522 134.2 138.089 144.094 123.46 144.094C108.061 144.094 97.6667 134.431 93.7015 121.766C97.9362 133.43 109.832 141.861 123.46 141.861C137.357 141.861 149.022 133.43 153.487 121.535ZM69.333 105.251H64.3669L65.0983 106.252V112.719C65.0983 114.22 64.0974 114.721 62.6345 114.721C61.1331 114.721 60.1707 114.22 60.1707 112.719V106.252L61.1716 105.251H56.2055L56.937 106.252V112.719C56.937 115.953 58.6693 117.185 62.904 117.185C67.1386 117.185 68.6015 115.953 68.6015 112.719V106.021L69.333 105.251ZM86.4256 105.251H82.191L82.9224 106.252V112.219L76.9554 105.289H73.2212L73.9526 106.29V116.222L73.2212 117.223H77.4558L76.7244 116.222V110.255L83.1919 117.185H85.9252V106.252L86.4256 105.251ZM96.0113 116.954L95.2799 115.953V106.021L96.0113 105.289H91.0452L91.7767 106.29V116.222L91.0452 116.954H96.0113ZM112.373 105.251H108.138L108.869 106.252L105.905 112.719L103.172 106.252L103.903 105.251H98.9371L104.404 116.915H106.867L112.373 105.251ZM126.308 116.954V113.72L125.308 114.451H119.34V112.219H123.075L123.806 112.95V109.216L123.075 109.947H119.34V107.791H125.308L126.308 108.523V105.289H115.375L116.107 106.29V116.222L115.375 116.954H126.308ZM139.051 109.062C139.051 109.793 138.319 110.563 137.049 110.563H134.816V107.599H137.55C138.319 107.791 139.051 108.061 139.051 109.062ZM143.016 116.992L139.782 112.296C141.515 111.795 142.516 110.563 142.516 108.831C142.516 106.829 141.284 105.366 138.05 105.366H130.851L131.583 106.367V116.261L130.851 117.262H135.817L135.086 116.261V113.027H136.587L138.82 116.261L138.089 117.262H143.055M157.914 113.527C157.914 111.795 156.413 110.563 154.18 109.793C152.948 109.562 150.946 109.062 150.946 108.292C150.946 107.791 151.447 107.56 152.448 107.56C153.68 107.56 155.682 108.061 157.414 108.792V104.827L156.413 105.828C155.412 105.328 153.68 104.827 152.448 104.827C148.483 104.827 147.251 106.56 147.251 108.292C147.251 110.525 148.752 111.526 150.985 112.257C152.717 112.758 154.219 112.989 154.219 113.758C154.219 114.49 153.218 114.759 152.717 114.759C151.485 114.759 149.253 114.259 147.251 113.027V117.262L148.252 116.261C149.253 116.761 151.216 117.262 152.948 117.262C156.413 117.262 157.914 115.76 157.914 113.527ZM169.771 112.758H165.806L167.808 108.523L169.771 112.758ZM175.469 116.954L169.502 105.289H165.537L166.037 106.29L160.84 117.223H165.075L164.343 116.222L164.844 114.99H170.31L170.811 116.222L170.58 116.954H175.469ZM189.251 116.954V113.72L188.25 114.451H182.552V106.021L183.284 105.02H178.318L179.319 106.021V115.953L178.587 116.954H189.251ZM186.787 107.791C186.787 106.56 187.788 105.559 189.02 105.559C190.252 105.559 191.484 106.56 191.484 107.791C191.484 109.023 190.483 110.024 189.02 110.024C187.519 110.024 186.787 109.023 186.787 107.791ZM187.018 107.791C187.018 109.023 188.019 110.024 189.251 110.024C190.483 110.024 191.484 109.023 191.484 107.791C191.484 106.56 190.483 105.559 189.251 105.559C188.058 105.559 187.057 106.56 187.018 107.791Z" fill="#FFFCFC"/>
<path d="M189.982 106.867C189.751 106.636 189.482 106.636 189.251 106.636C188.519 106.636 188.019 107.137 188.019 107.868C188.019 108.6 188.519 109.1 189.251 109.1C189.482 109.1 189.751 109.1 189.982 108.869V108.638C189.751 108.869 189.482 109.139 189.251 109.139C188.75 109.139 188.25 108.638 188.25 108.138C188.25 107.637 188.481 106.906 189.251 106.906C189.482 106.906 189.751 106.906 189.982 107.137V106.867ZM16.2842 159.416V163.881C16.2842 166.114 15.0523 166.846 12.319 166.846C9.58573 166.846 8.35383 166.114 8.35383 163.881V159.416L7.85337 158.915H11.3181L10.8176 159.416V163.881C10.8176 164.882 11.5491 165.383 12.55 165.383C13.5509 165.383 14.2824 164.882 14.2824 163.881V159.416L13.7819 158.915H17.0156L16.2842 159.416ZM29.0267 159.416V166.615H27.2943L23.0597 161.918V165.883L23.5601 166.384H20.8268L21.3273 165.883V159.416L20.8268 158.915H23.2906L27.2558 163.381V159.416L26.7554 158.915H29.4886L29.0267 159.416ZM33.8388 166.692L34.3393 166.191V159.493L33.8388 158.761H37.0725L36.5721 159.493V166.191L37.0725 166.692H33.8388ZM45.7344 166.692H44.002L40.2678 158.761H43.5015L43.2705 159.493L45.2724 163.727L47.2742 159.493L46.7738 158.761H49.5071L45.7344 166.692ZM52.6253 166.692L53.1258 166.191V159.493L52.6253 158.761H60.0552V160.994L59.5548 160.494H55.3201V161.995H57.7839L58.2844 161.495V163.958L58.0534 163.458H55.5896V164.959H59.5548L60.0552 164.459V166.692H52.6253ZM68.794 160.455H67.0617V162.457H68.563C69.2945 162.457 69.7949 161.957 69.7949 161.456C69.7949 160.725 69.2945 160.455 68.794 160.455ZM69.0635 166.653L69.564 166.153L68.0626 163.92H67.0617V166.153L67.5621 166.653H64.3284L64.8288 166.153V159.454L64.3284 158.954H69.2945C71.5273 158.954 72.2587 159.955 72.2587 161.418C72.2587 162.65 71.5273 163.419 70.5264 163.881L72.7592 167.115H69.025M80.3431 166.923C79.1112 166.923 77.8793 166.422 77.1094 166.191L76.6089 166.923V163.958C77.8408 164.959 79.3422 165.19 80.3431 165.19C80.5741 165.19 81.344 165.19 81.344 164.459C81.344 163.727 80.3431 163.727 79.1112 163.458C77.6098 162.957 76.6474 162.226 76.6474 160.725C76.6474 159.724 77.3788 158.492 80.1121 158.492C80.8436 158.492 82.114 158.723 82.5759 158.992L83.3074 158.492V161.225C82.3064 160.725 80.8436 160.224 80.0736 160.224C79.3422 160.224 79.0727 160.455 79.0727 160.725C78.8417 161.456 80.3046 161.726 81.3055 161.957C82.8069 162.457 83.7693 163.188 83.7693 164.42C83.8463 165.922 82.5759 166.923 80.3431 166.923ZM91.6227 161.033L90.3908 163.766H93.1241L91.6227 161.033ZM93.3551 166.73L93.8555 165.999L93.6245 165.267H89.8903L89.3899 165.999L89.8903 166.499H86.9261L90.3908 159.3L90.1598 158.8H92.8931L96.8583 166.73H93.3551ZM100.092 166.692L100.592 166.191V159.493L100.092 158.761H103.326L102.825 159.493V164.959H106.56L107.06 164.459V166.692H100.092ZM124.961 166.692L125.462 166.191V162.457L123.46 166.692H122.459L119.995 162.226V166.191L120.495 166.692H117.762L118.263 166.191V159.493L117.762 158.992H120.495L122.959 163.689L125.192 158.992H127.925L127.694 159.493V166.191L128.195 166.692H124.961ZM140.475 159.416V163.881C140.475 166.114 139.243 166.846 136.51 166.846C133.777 166.846 132.545 166.114 132.545 163.881V159.416L132.044 158.915H135.509L135.009 159.416V163.881C135.009 164.882 135.74 165.383 136.741 165.383C137.742 165.383 138.473 164.882 138.473 163.881V159.416L137.973 158.915H141.207L140.475 159.416ZM148.56 166.923C147.328 166.923 146.096 166.422 145.326 166.191L144.825 166.923V163.958C146.057 164.959 147.559 165.19 148.56 165.19C148.791 165.19 149.561 165.19 149.561 164.459C149.561 163.727 148.56 163.727 147.328 163.458C145.826 162.957 144.864 162.226 144.864 160.725C144.864 159.724 145.595 158.492 148.329 158.492C149.06 158.492 150.331 158.723 150.792 158.992L151.524 158.492V161.225C150.523 160.725 149.06 160.224 148.29 160.224C147.52 160.224 147.289 160.455 147.289 160.725C147.058 161.456 148.521 161.726 149.522 161.957C151.023 162.457 151.986 163.188 151.986 164.42C152.024 165.922 150.792 166.923 148.56 166.923ZM156.105 166.692L156.606 166.191V159.493L156.105 158.761H159.339L158.838 159.493V166.191L159.339 166.692H156.105ZM167.924 166.846C165.46 166.846 163.458 165.614 163.458 162.611C163.458 160.378 165.19 158.646 168.155 158.646C169.156 158.646 170.156 158.877 170.618 159.146L171.119 158.646V161.11C170.118 160.609 169.117 160.378 168.155 160.378C166.422 160.378 165.922 161.379 165.922 162.842C165.922 164.343 166.923 165.306 168.386 165.306C169.887 165.306 170.618 164.805 171.119 164.574V166.076C170.387 166.345 169.156 166.846 167.924 166.846ZM187.057 162.803H189.79V166.037C189.289 166.268 187.557 166.769 186.325 166.769C183.861 166.769 181.629 165.537 181.629 162.534C181.629 159.57 184.092 158.569 186.325 158.569C187.557 158.569 188.327 158.8 188.789 159.069L189.52 158.569V161.302C188.519 160.802 187.519 160.301 186.287 160.301C184.785 160.301 184.054 161.302 184.054 162.765C184.054 164.228 184.785 165.229 186.287 165.229C186.518 165.229 187.018 165.229 187.519 164.998V163.265L187.057 162.803ZM198.259 160.455H196.527V162.457H198.028C198.76 162.457 199.26 161.957 199.26 161.456C199.26 160.725 198.76 160.455 198.259 160.455ZM198.529 166.653L199.029 166.153L197.528 163.92H196.527V166.153L197.027 166.653H193.794L194.294 166.153V159.454L193.794 158.954H198.76C200.992 158.954 201.724 159.955 201.724 161.418C201.724 162.65 200.992 163.419 199.992 163.881L202.224 167.115H198.49M210.232 160.301C208.73 160.301 208.23 161.302 208.23 162.765C208.23 164.266 208.73 165.229 210.232 165.229C211.733 165.229 212.234 164.228 212.234 162.765C212.234 161.302 211.733 160.301 210.232 160.301ZM210.232 167C207.999 167 205.766 165.768 205.766 162.765C205.766 159.801 207.999 158.53 210.232 158.53C212.465 158.53 214.697 159.762 214.697 162.765C214.697 165.768 212.465 167 210.232 167ZM226.593 159.416V163.881C226.593 166.114 225.361 166.846 222.628 166.846C219.894 166.846 218.663 166.114 218.663 163.881V159.416L218.162 158.915H221.627L221.126 159.416V163.881C221.126 164.882 221.858 165.383 222.859 165.383C223.86 165.383 224.591 164.882 224.591 163.881V159.416L224.091 158.915H227.324L226.593 159.416ZM235.101 160.455H233.869V162.919H234.87C235.871 162.919 236.602 162.688 236.602 161.687C236.602 160.725 235.871 160.455 235.101 160.455ZM235.101 164.42H233.599V166.153L234.1 166.653H230.866L231.367 166.153V159.454L230.866 158.954H235.101C236.602 158.954 238.835 159.454 238.835 161.687C238.835 163.92 237.103 164.42 235.101 164.42Z" fill="#FFFCFC"/>
</svg>
